<svg xmlns="http://www.w3.org/2000/svg" viewBox="0 0 64 64" fill="none">
  <defs>
    <linearGradient id="bg" x1="12" y1="8" x2="54" y2="56" gradientUnits="userSpaceOnUse">
      <stop stop-color="#0f172a" />
      <stop offset="1" stop-color="#111827" />
    </linearGradient>
    <linearGradient id="accent" x1="18" y1="18" x2="48" y2="50" gradientUnits="userSpaceOnUse">
      <stop stop-color="#ffb366" />
      <stop offset="1" stop-color="#ff6b00" />
    </linearGradient>
  </defs>
  <rect x="4" y="4" width="56" height="56" rx="16" fill="url(#bg)" />
  <path d="M18 31c0-5.523 4.477-10 10-10h8c5.523 0 10 4.477 10 10v3H18v-3Z" fill="url(#accent)" />
  <path d="M16 36h32c0 7.732-6.268 14-14 14h-4c-7.732 0-14-6.268-14-14Z" fill="#f8fafc" />
  <path d="M22 20c0-2 1.5-4 3.5-5" stroke="#ffb366" stroke-width="2.5" stroke-linecap="round" />
  <path d="M31 17c0-2 1.5-4 3.5-5" stroke="#ffb366" stroke-width="2.5" stroke-linecap="round" />
  <path d="M40 20c0-2 1.5-4 3.5-5" stroke="#ffb366" stroke-width="2.5" stroke-linecap="round" />
  <path d="M22 37h20" stroke="#0f172a" stroke-width="3" stroke-linecap="round" opacity="0.12" />
</svg>